<svg xmlns="http://www.w3.org/2000/svg" xmlns:xlink="http://www.w3.org/1999/xlink" xmlns:lucid="lucid" width="1529.12" height="2100"><g transform="translate(-390.88271604938274 -120)" lucid:page-tab-id="0_0"><path d="M0 0h3677.73v2581.67H0z" fill="#1f1f1f"/><path d="M1428 140c17.67 0 32 17.9 32 40s-14.33 40-32 40h-96c-17.67 0-32-17.9-32-40s14.33-40 32-40z" stroke="#9e66e4" stroke-width="2" fill="#bb86fc"/><use xlink:href="#a" transform="matrix(1,0,0,1,1305,145) translate(55.24691358024691 39.65277777777778)"/><path d="M975.2 363.6a8 8 0 0 1 9.6 0l70.4 52.8a4.5 4.5 0 0 1 0 7.2l-70.4 52.8a8 8 0 0 1-9.6 0l-70.4-52.8a4.5 4.5 0 0 1 0-7.2z" stroke="#9e66e4" stroke-width="2" fill="#bb86fc"/><use xlink:href="#b" transform="matrix(1,0,0,1,905,365) translate(51.60993827160494 59.02777777777778)"/><path d="M1815.2 363.6a8 8 0 0 1 9.6 0l70.4 52.8a4.5 4.5 0 0 1 0 7.2l-70.4 52.8a8 8 0 0 1-9.6 0l-70.4-52.8a4.5 4.5 0 0 1 0-7.2z" stroke="#9e66e4" stroke-width="2" fill="#bb86fc"/><use xlink:href="#c" transform="matrix(1,0,0,1,1745,365) translate(43.58524691358025 59.02777777777778)"/><path d="M1820 359.5V327a6 6 0 0 0-6-6H986a6 6 0 0 0-6 6v13.38" stroke="#03dac6" stroke-width="3" fill="none"/><path d="M1821.5 361.14l-.34-.07-1.16-.07-1.16.07-.34.07v-1.68h3z" stroke="#03dac6" stroke-width=".05" fill="#03dac6"/><path d="M980 356.14l-4.64-14.26h9.28z" stroke="#03dac6" stroke-width="3" fill="#03dac6"/><path d="M975.2 503.6a8 8 0 0 1 9.6 0l70.4 52.8a4.5 4.5 0 0 1 0 7.2l-70.4 52.8a8 8 0 0 1-9.6 0l-70.4-52.8a4.5 4.5 0 0 1 0-7.2z" stroke="#9e66e4" stroke-width="2" fill="#bb86fc"/><use xlink:href="#d" transform="matrix(1,0,0,1,905,505) translate(47.87537037037037 59.02777777777778)"/><path d="M1380 222.5v77.88" stroke="#03dac6" stroke-width="3" fill="none"/><path d="M1381.5 222.54h-3V221h3z" stroke="#03dac6" stroke-width=".05" fill="#03dac6"/><path d="M1380 316.14l-4.64-14.26h9.28z" stroke="#03dac6" stroke-width="3" fill="#03dac6"/><path stroke="#008a0e" stroke-width=".05" fill="#008a0e"/><path fill="#008a0e"/><path stroke="#008a0e" stroke-width=".05" fill="#008a0e"/><path fill="#008a0e"/><path stroke="#008a0e" stroke-width=".05" fill="#008a0e"/><use xlink:href="#e" transform="matrix(1,0,0,1,961.8827160493827,474.6666666666667) translate(0.004999999999999005 17.77777777777778)"/><path d="M1215.2 643.6a8 8 0 0 1 9.6 0l70.4 52.8a4.5 4.5 0 0 1 0 7.2l-70.4 52.8a8 8 0 0 1-9.6 0l-70.4-52.8a4.5 4.5 0 0 1 0-7.2z" stroke="#9e66e4" stroke-width="2" fill="#bb86fc"/><use xlink:href="#f" transform="matrix(1,0,0,1,1145,645) translate(33.02969135802468 59.02777777777778)"/><path d="M735.2 643.6a8 8 0 0 1 9.6 0l70.4 52.8a4.5 4.5 0 0 1 0 7.2l-70.4 52.8a8 8 0 0 1-9.6 0l-70.4-52.8a4.5 4.5 0 0 1 0-7.2z" stroke="#9e66e4" stroke-width="2" fill="#bb86fc"/><use xlink:href="#g" transform="matrix(1,0,0,1,665,645) translate(57.19635802469136 59.02777777777778)"/><path d="M623.07 694.82l.17.72.3.73.4.67.52.6.6.5.67.4.72.3.76.2.84.06H661v2h-33.04l-1.06-.08-1.07-.26-1-.42-.95-.57-.84-.72-.7-.83-.58-.94-.42-1.02-.27-1.1-.07-241.73h2zM883.5 421l-256.32.07-.73.18-.72.3-.67.4-.6.52-.5.6-.42.66-.3.73-.18.76-.06.82v.63h-2v-.7l.08-1.07.26-1.06.42-1.02.57-.94.7-.83.85-.72.94-.57 1-.42 1.12-.27L883.5 419z" stroke="#008a0e" stroke-width=".05" fill="#008a0e"/><path d="M662 700l.1 1h-1.13v-2h1.12z" fill="#008a0e"/><path d="M662.02 700l.1 1.02h-1.17V699h1.17zm-1.02-.98V701h1.06l-.1-.98.1-.98z" stroke="#008a0e" stroke-width=".05" fill="#008a0e"/><path d="M898.76 420l-14.27 4.64v-9.28z" fill="#008a0e"/><path d="M902 420l-18.5 6v-12zm-16.5 3.26L895.5 420l-10.03-3.26z" stroke="#008a0e" stroke-width=".05" fill="#008a0e"/><use xlink:href="#e" transform="matrix(1,0,0,1,603.87844311512,426.6666666666667) translate(0.004999999999999005 17.77777777777778)"/><path d="M980 620v4a6 6 0 0 1-6 6H747.5" stroke="#008a0e" stroke-width="2" fill="none"/><path d="M980 619l1-.06v1.1h-2v-1.1z" stroke="#008a0e" stroke-width=".05" fill="#008a0e"/><path d="M741.82 638.32l4.22-14.4 7.65 5.23z" stroke="#008a0e" stroke-width="2" fill="#008a0e"/><use xlink:href="#e" transform="matrix(1,0,0,1,915.8768290929958,599.3333333333333) translate(0.004999999999999005 17.77777777777778)"/><path d="M1212.5 629v2l-98.33-.03v-2zM981 623.96l.06.82.2.76.3.73.4.67.5.6.6.5.67.4.73.3.72.2 100.65.02v2l-100.9-.03-1.1-.27-1-.42-.95-.57-.83-.72-.72-.83-.57-.94-.42-1.02-.26-1.06-.08-1.06V620h2z" stroke="#e81313" stroke-width=".05" fill="#e81313"/><path d="M980 619l1-.06v1.1h-2v-1.1z" fill="#e81313"/><path d="M980 618.98l1.02-.07v1.15H979v-1.14zm-.98 1.02H981v-1.04l-.98.07-.98-.07z" stroke="#e81313" stroke-width=".05" fill="#e81313"/><path d="M1218.18 638.32l-11.87-9.17 7.66-5.22z" fill="#e81313"/><path d="M1220 641l-15.4-11.9 9.94-6.77zm-12-11.8l8.35 6.45-2.96-10.12z" stroke="#e81313" stroke-width=".05" fill="#e81313"/><use xlink:href="#h" transform="matrix(1,0,0,1,1085.8333333333333,616.6666666666666) translate(0.005000000000000782 17.77777777777778)"/><path d="M800 806a6 6 0 0 1 6-6h148a6 6 0 0 1 6 6v108a6 6 0 0 1-6 6H806a6 6 0 0 1-6-6z" stroke="#9e66e4" stroke-width="2" fill="#bb86fc"/><use xlink:href="#i" transform="matrix(1,0,0,1,812,812) translate(53.18518518518519 53.77777777777778)"/><path d="M1031.88 780l-150.33.02h-.1l-.1.03-.07.03-.07.04-.05.05-.05.06-.04.07-.03.08-.02.07v.16l-2-.14.03-.32.1-.38.14-.37.2-.35.26-.3.3-.25.34-.2.37-.16.38-.1.36-.02 150.4-.03zm189.12-6.94l-.08 1.05-.26 1.08-.42 1.02-.57.94-.72.83-.83.72-.94.56-1.02.42-1.1.27-146.94.03v-2l146.7-.03.72-.18.73-.3.67-.4.6-.52.5-.6.4-.66.3-.74.2-.76.06-.82V760h2z" stroke="#008a0e" stroke-width=".05" fill="#008a0e"/><path d="M1220 759l1-.06v1.1h-2v-1.1z" fill="#008a0e"/><path d="M1220 758.98l1.03-.07v1.15h-2.06v-1.14zm-.97 1.02h1.94v-1.04l-.97.07-.97-.07z" stroke="#008a0e" stroke-width=".05" fill="#008a0e"/><path d="M880 795.8l-4.64-14.27h9.28z" fill="#008a0e"/><path d="M880 799.04l-6-18.5h12zm-3.26-16.5l3.26 10.02 3.26-10.03z" stroke="#008a0e" stroke-width=".05" fill="#008a0e"/><use xlink:href="#e" transform="matrix(1,0,0,1,1031.8827160493827,765.686065685257) translate(0.004999999999999005 17.77777777777778)"/><path d="M1095.2 963.6a8 8 0 0 1 9.6 0l70.4 52.8a4.5 4.5 0 0 1 0 7.2l-70.4 52.8a8 8 0 0 1-9.6 0l-70.4-52.8a4.5 4.5 0 0 1 0-7.2z" stroke="#9e66e4" stroke-width="2" fill="#bb86fc"/><use xlink:href="#j" transform="matrix(1,0,0,1,1025,965) translate(38.67783950617284 59.02777777777778)"/><path d="M875.2 1303.6a8 8 0 0 1 9.6 0l70.4 52.8a4.5 4.5 0 0 1 0 7.2l-70.4 52.8a8 8 0 0 1-9.6 0l-70.4-52.8a4.5 4.5 0 0 1 0-7.2z" stroke="#9e66e4" stroke-width="2" fill="#bb86fc"/><use xlink:href="#k" transform="matrix(1,0,0,1,805,1305) translate(39.85067901234567 59.02777777777778)"/><path d="M655.2 963.6a8 8 0 0 1 9.6 0l70.4 52.8a4.5 4.5 0 0 1 0 7.2l-70.4 52.8a8 8 0 0 1-9.6 0l-70.4-52.8a4.5 4.5 0 0 1 0-7.2z" stroke="#9e66e4" stroke-width="2" fill="#bb86fc"/><use xlink:href="#l" transform="matrix(1,0,0,1,585,965) translate(44.78895061728395 59.02777777777778)"/><path d="M880 922.46v357.92" stroke="#03dac6" stroke-width="3" fill="none"/><path d="M881.5 922.5h-3v-1.54h3z" stroke="#03dac6" stroke-width=".05" fill="#03dac6"/><path d="M880 1296.14l-4.64-14.26h9.28z" stroke="#03dac6" stroke-width="3" fill="#03dac6"/><path d="M543.07 1014.82l.17.72.3.73.4.67.52.6.6.5.67.4.72.3.76.2.84.06H581v2h-33.04l-1.06-.08-1.07-.26-1-.42-.95-.57-.84-.72-.7-.83-.58-.94-.42-1.02-.27-1.1-.04-301.73h2zM603.5 421l-56.32.07-.73.18-.72.3-.67.4-.6.52-.5.6-.42.66-.3.73-.18.76-.06.82.03 260.63h-2l-.03-260.7.08-1.07.26-1.06.42-1.02.57-.94.7-.83.85-.72.94-.57 1-.42 1.12-.27 56.55-.07z" stroke="#008a0e" stroke-width=".05" fill="#008a0e"/><path d="M582 1020l.1 1h-1.13v-2h1.12z" fill="#008a0e"/><path d="M582.02 1020l.1 1.02h-1.17V1019h1.17zm-1.02-.98v1.96h1.06l-.1-.98.1-.98z" stroke="#008a0e" stroke-width=".05" fill="#008a0e"/><path d="M618.76 420l-14.27 4.64v-9.28z" fill="#008a0e"/><path d="M622 420l-18.5 6v-12zm-16.5 3.26L615.5 420l-10.03-3.26z" stroke="#008a0e" stroke-width=".05" fill="#008a0e"/><use xlink:href="#e" transform="matrix(1,0,0,1,523.87844311512,686.6666666666666) translate(0.004999999999999005 17.77777777777778)"/><path d="M797.54 860H666a6 6 0 0 0-6 6v74.38" stroke="#03dac6" stroke-width="3" fill="none"/><path d="M799.04 861.5h-1.54v-3h1.54z" stroke="#03dac6" stroke-width=".05" fill="#03dac6"/><path d="M660 956.14l-4.64-14.26h9.28z" stroke="#03dac6" stroke-width="3" fill="#03dac6"/><path d="M962.46 860H1094a6 6 0 0 1 6 6v74.38" stroke="#03dac6" stroke-width="3" fill="none"/><path d="M962.5 861.5h-1.54v-3h1.54z" stroke="#03dac6" stroke-width=".05" fill="#03dac6"/><path d="M1100 956.14l-4.64-14.26h9.28z" stroke="#03dac6" stroke-width="3" fill="#03dac6"/><path d="M1020 1146a6 6 0 0 1 6-6h148a6 6 0 0 1 6 6v108a6 6 0 0 1-6 6h-148a6 6 0 0 1-6-6z" stroke="#9e66e4" stroke-width="2" fill="#bb86fc"/><use xlink:href="#m" transform="matrix(1,0,0,1,1032,1152) translate(6.950617283950621 38.77777777777778)"/><use xlink:href="#n" transform="matrix(1,0,0,1,1032,1152) translate(30.34567901234568 38.77777777777778)"/><use xlink:href="#o" transform="matrix(1,0,0,1,1032,1152) translate(73.55555555555556 38.77777777777778)"/><use xlink:href="#p" transform="matrix(1,0,0,1,1032,1152) translate(43.925925925925924 65.44444444444446)"/><path d="M1101 1095.7h-2V1080h2z" stroke="#008a0e" stroke-width=".05" fill="#008a0e"/><path d="M1100 1079l1-.06v1.1h-2v-1.1z" fill="#008a0e"/><path d="M1100 1078.98l1.03-.07v1.15h-2.06v-1.14zm-.97 1.02h1.94v-1.04l-.97.07-.97-.07z" stroke="#008a0e" stroke-width=".05" fill="#008a0e"/><path d="M1100 1135.8l-4.37-13.45h8.74z" fill="#008a0e"/><path d="M1100 1139.04l-5.42-16.7h10.84zm-3.26-16.5l3.26 10.02 3.26-10.03z" stroke="#008a0e" stroke-width=".05" fill="#008a0e"/><use xlink:href="#e" transform="matrix(1,0,0,1,1081.8827160493827,1095.686065685257) translate(0.004999999999999005 17.77777777777778)"/><path d="M1148 1320c17.67 0 32 17.9 32 40s-14.33 40-32 40h-96c-17.67 0-32-17.9-32-40s14.33-40 32-40z" stroke="#9e66e4" stroke-width="2" fill="#bb86fc"/><use xlink:href="#q" transform="matrix(1,0,0,1,1025,1325) translate(43.51851851851852 39.65277777777778)"/><path d="M1100 1262.46v35.92" stroke="#03dac6" stroke-width="3" fill="none"/><path d="M1101.5 1262.5h-3v-1.54h3z" stroke="#03dac6" stroke-width=".05" fill="#03dac6"/><path d="M1100 1314.15l-4.64-14.27h9.28z" stroke="#03dac6" stroke-width="3" fill="#03dac6"/><path d="M1017.5 1360h-38.88" stroke="#03dac6" stroke-width="3" fill="none"/><path d="M1019 1360l.05 1.5h-1.6v-3h1.64z" stroke="#03dac6" stroke-width=".05" fill="#03dac6"/><path d="M962.86 1360l14.26-4.64v9.28z" stroke="#03dac6" stroke-width="3" fill="#03dac6"/><path d="M735.2 1443.6a8 8 0 0 1 9.6 0l70.4 52.8a4.5 4.5 0 0 1 0 7.2l-70.4 52.8a8 8 0 0 1-9.6 0l-70.4-52.8a4.5 4.5 0 0 1 0-7.2z" stroke="#9e66e4" stroke-width="2" fill="#bb86fc"/><use xlink:href="#r" transform="matrix(1,0,0,1,665,1445) translate(47.258086419753084 59.02777777777778)"/><path d="M995.2 1443.6a8 8 0 0 1 9.6 0l70.4 52.8a4.5 4.5 0 0 1 0 7.2l-70.4 52.8a8 8 0 0 1-9.6 0l-70.4-52.8a4.5 4.5 0 0 1 0-7.2z" stroke="#9e66e4" stroke-width="2" fill="#bb86fc"/><use xlink:href="#s" transform="matrix(1,0,0,1,925,1445) translate(66.3938888888889 59.02777777777778)"/><path d="M990.38 1428.5v3l-41.77-.03v-3zm-108.88-4.56l.06.76.16.7.27.64.36.6.46.54.54.46.6.37.65.28.64.15 46.15.03v3l-46.52-.03-1.2-.3-1.1-.44-1-.63-.9-.76-.75-.9-.62-1-.44-1.08-.27-1.15-.1-1.1v-3.57h3z" stroke="#03dac6" stroke-width=".05" fill="#03dac6"/><path d="M878.84 1418.93l1.16.07 1.16-.07.34-.07v1.68h-3v-1.68z" fill="#03dac6"/><path d="M878.85 1418.9l1.15.08 1.15-.08.38-.07v1.74h-3.05v-1.74zm-.33 1.62h2.96v-1.63l-.32.05-1.16.08-1.16-.08-.32-.06z" stroke="#03dac6" stroke-width=".05" fill="#03dac6"/><path d="M996.8 1437.34l-12.88-7.68 6.98-6.1z" fill="#03dac6"/><path d="M1000 1441l-18.62-11.1 10.1-8.83zm-13.54-11.57l7.15 4.26-3.27-7.66z" stroke="#03dac6" stroke-width=".05" fill="#03dac6"/><use xlink:href="#t" transform="matrix(1,0,0,1,931.3888888888889,1416.6666666666667) translate(0.005000000000000782 17.77777777777778)"/><path d="M782.25 1431.48l-32.63.02v-3l32.63-.02zm99.25-7.42l-.1 1.1-.26 1.16-.45 1.1-.63 1-.76.9-.9.75-1 .62-1.08.44-1.2.3h-37.37v-3h37l.64-.16.64-.27.6-.36.54-.46.46-.54.37-.6.28-.65.16-.7.06-.76v-3.44h3z" stroke="#03dac6" stroke-width=".05" fill="#03dac6"/><path d="M878.84 1418.93l1.16.07 1.16-.07.34-.07v1.68h-3v-1.68z" fill="#03dac6"/><path d="M878.85 1418.9l1.15.08 1.15-.08.38-.07v1.74h-3.05v-1.74zm-.33 1.62h2.96v-1.63l-.32.05-1.16.08-1.16-.08-.32-.06z" stroke="#03dac6" stroke-width=".05" fill="#03dac6"/><path d="M756.08 1429.66l-12.88 7.68 5.9-13.78z" fill="#03dac6"/><path d="M758.62 1429.9L740 1441l8.53-19.93zm-12.23 3.8l7.14-4.27-3.87-3.4z" stroke="#03dac6" stroke-width=".05" fill="#03dac6"/><use xlink:href="#u" transform="matrix(1,0,0,1,782.2530864197531,1416.6666666666667) translate(0.004999999999999005 17.77777777777778)"/><path d="M875.2 1923.6a8 8 0 0 1 9.6 0l70.4 52.8a4.5 4.5 0 0 1 0 7.2l-70.4 52.8a8 8 0 0 1-9.6 0l-70.4-52.8a4.5 4.5 0 0 1 0-7.2z" stroke="#9e66e4" stroke-width="2" fill="#bb86fc"/><use xlink:href="#v" transform="matrix(1,0,0,1,805,1925) translate(41.14697530864197 59.02777777777778)"/><path d="M830.45 1605.8a7.8 7.8 0 0 1 7.55-5.8h116a4.6 4.6 0 0 1 4.45 5.8l-28.9 108.4a7.8 7.8 0 0 1-7.55 5.8H806a4.6 4.6 0 0 1-4.45-5.8z" stroke="#9e66e4" stroke-width="2" fill="#bb86fc"/><use xlink:href="#w" transform="matrix(1,0,0,1,805,1605) translate(51.46179012345679 59.02777777777778)"/><path d="M796.5 1659v2l-51.56-.07-1.1-.27-.8-.32h15.08v-1.4zm-55.5-25.33h-2V1560h2z" stroke="#008a0e" stroke-width=".05" fill="#008a0e"/><path d="M740 1559l1-.06v1.1h-2v-1.1z" fill="#008a0e"/><path d="M740 1558.98l1.02-.07v1.15H739v-1.14zm-.98 1.02H741v-1.04l-.98.07-.98-.07z" stroke="#008a0e" stroke-width=".05" fill="#008a0e"/><path d="M811.77 1660l-14.27 4.64v-9.28z" fill="#008a0e"/><path d="M815 1660l-18.5 6v-12zm-16.5 3.26l10.03-3.26-10.03-3.26z" stroke="#008a0e" stroke-width=".05" fill="#008a0e"/><use xlink:href="#e" transform="matrix(1,0,0,1,721.8827160493827,1633.670136972661) translate(0.004999999999999005 17.77777777777778)"/><path d="M1001 1654.04l-.08 1.06-.26 1.06-.42 1.02-.57.94-.72.83-.83.72-.94.57-1.02.42-1.1.27-31.56.07v-2l31.32-.07.72-.18.73-.3.67-.4.6-.52.5-.6.4-.66.3-.73.2-.76.06-.82v-3.62h2zm0-30.37h-2V1560h2z" stroke="#008a0e" stroke-width=".05" fill="#008a0e"/><path d="M1000 1559l1-.06v1.1h-2v-1.1z" fill="#008a0e"/><path d="M1000 1558.98l1.02-.07v1.15H999v-1.14zm-.98 1.02h1.96v-1.04l-.98.07-.98-.07z" stroke="#008a0e" stroke-width=".05" fill="#008a0e"/><path d="M962.5 1664.64l-14.27-4.64 14.27-4.64z" fill="#008a0e"/><path d="M963.5 1666l-18.5-6 18.5-6zm-12.03-6l10.03 3.26v-6.52z" stroke="#008a0e" stroke-width=".05" fill="#008a0e"/><use xlink:href="#e" transform="matrix(1,0,0,1,981.8827160493827,1623.670136972661) translate(0.004999999999999005 17.77777777777778)"/><path d="M800 1766a6 6 0 0 1 6-6h148a6 6 0 0 1 6 6v108a6 6 0 0 1-6 6H806a6 6 0 0 1-6-6z" stroke="#9e66e4" stroke-width="2" fill="#bb86fc"/><use xlink:href="#x" transform="matrix(1,0,0,1,812,1772) translate(51.95061728395062 53.77777777777778)"/><path d="M880 1757.54v-38.5 19.38" stroke="#03dac6" stroke-width="3" fill="none"/><path d="M881.5 1759.04h-3v-1.54h3z" stroke="#03dac6" stroke-width=".05" fill="#03dac6"/><path d="M880 1754.18l-4.64-14.26h9.28z" stroke="#03dac6" stroke-width="3" fill="#03dac6"/><path d="M655.2 1923.6a8 8 0 0 1 9.6 0l70.4 52.8a4.5 4.5 0 0 1 0 7.2l-70.4 52.8a8 8 0 0 1-9.6 0l-70.4-52.8a4.5 4.5 0 0 1 0-7.2z" stroke="#9e66e4" stroke-width="2" fill="#bb86fc"/><use xlink:href="#y" transform="matrix(1,0,0,1,585,1925) translate(51.548209876543204 59.02777777777778)"/><path d="M880 1882.46v17.92" stroke="#03dac6" stroke-width="3" fill="none"/><path d="M881.5 1882.5h-3v-1.54h3z" stroke="#03dac6" stroke-width=".05" fill="#03dac6"/><path d="M880 1916.14l-4.64-14.26h9.28z" stroke="#03dac6" stroke-width="3" fill="#03dac6"/><path d="M797.54 1820H666a6 6 0 0 0-6 6v74.38" stroke="#03dac6" stroke-width="3" fill="none"/><path d="M799.04 1821.5h-1.54v-3h1.54z" stroke="#03dac6" stroke-width=".05" fill="#03dac6"/><path d="M660 1916.14l-4.64-14.26h9.28z" stroke="#03dac6" stroke-width="3" fill="#03dac6"/><path d="M543.07 1974.82l.17.72.3.73.4.67.52.6.6.5.67.4.72.3.76.2.84.06H581v2h-33.04l-1.06-.08-1.07-.26-1-.42-.95-.57-.84-.72-.7-.83-.58-.94-.42-1.02-.27-1.1-.05-401.73h2zM783.5 1361l-236.32.07-.73.18-.72.3-.67.4-.6.52-.5.6-.42.66-.3.73-.18.76-.06.82.02 180.63h-2l-.02-180.7.08-1.07.26-1.06.42-1.02.57-.94.7-.83.85-.72.94-.57 1-.42 1.12-.27 236.55-.07z" stroke="#008a0e" stroke-width=".05" fill="#008a0e"/><path d="M582 1980l.1 1h-1.13v-2h1.12z" fill="#008a0e"/><path d="M582.02 1980l.1 1.03h-1.17v-2.06h1.17zm-1.02-.97v1.94h1.06l-.1-.97.1-.97z" stroke="#008a0e" stroke-width=".05" fill="#008a0e"/><path d="M798.76 1360l-14.27 4.64v-9.28z" fill="#008a0e"/><path d="M802 1360l-18.5 6v-12zm-16.5 3.26l10.02-3.26-10.03-3.26z" stroke="#008a0e" stroke-width=".05" fill="#008a0e"/><use xlink:href="#e" transform="matrix(1,0,0,1,523.87844311512,1546.6666666666667) translate(0.004999999999999005 17.77777777777778)"/><path d="M421.07 2134.82l.18.72.3.73.4.67.52.6.6.5.66.4.73.3.76.2.82.06h372v2H425.96l-1.06-.08-1.06-.26-1.02-.42-.94-.57-.83-.72-.72-.83-.57-.94-.42-1.02-.27-1.1-.03-615.6h2zM780.54 873.26l-355.36.08-.72.17-.73.3-.67.42-.6.5-.5.6-.4.68-.3.72-.2.76-.06.82.04 614.5h-2L419 878.22l.08-1.06.26-1.07.42-1 .57-.95.72-.84.83-.7.94-.58 1.02-.42 1.1-.26 355.6-.08z" stroke="#008a0e" stroke-width=".05" fill="#008a0e"/><path d="M799.04 2141H798v-2h1.04z" fill="#008a0e"/><path d="M799.06 2141.03H798v-2.06h1.06zm-1.02-2v1.94h.97v-1.94z" stroke="#008a0e" stroke-width=".05" fill="#008a0e"/><path d="M795.8 872.26l-14.26 4.64v-9.27z" fill="#008a0e"/><path d="M799.04 872.26l-18.5 6.02v-12.03zm-16.5 3.26l10.03-3.26-10.03-3.25z" stroke="#008a0e" stroke-width=".05" fill="#008a0e"/><use xlink:href="#e" transform="matrix(1,0,0,1,401.88271604938274,1492.7947181536713) translate(0.004999999999999005 17.77777777777778)"/><path d="M1395.2 963.6a8 8 0 0 1 9.6 0l70.4 52.8a4.5 4.5 0 0 1 0 7.2l-70.4 52.8a8 8 0 0 1-9.6 0l-70.4-52.8a4.5 4.5 0 0 1 0-7.2z" stroke="#9e66e4" stroke-width="2" fill="#bb86fc"/><use xlink:href="#z" transform="matrix(1,0,0,1,1325,965) translate(36.23956790123457 59.02777777777778)"/><use xlink:href="#A" transform="matrix(1,0,0,1,1325,965) translate(71.98030864197531 59.02777777777778)"/><path d="M962.46 860H1394a6 6 0 0 1 6 6v74.38" stroke="#03dac6" stroke-width="3" fill="none"/><path d="M962.5 861.5h-1.54v-3h1.54z" stroke="#03dac6" stroke-width=".05" fill="#03dac6"/><path d="M1400 956.14l-4.64-14.26h9.28z" stroke="#03dac6" stroke-width="3" fill="#03dac6"/><path d="M1320 1146a6 6 0 0 1 6-6h148a6 6 0 0 1 6 6v108a6 6 0 0 1-6 6h-148a6 6 0 0 1-6-6z" stroke="#9e66e4" stroke-width="2" fill="#bb86fc"/><use xlink:href="#B" transform="matrix(1,0,0,1,1332,1152) translate(19.26543209876543 53.77777777777778)"/><use xlink:href="#p" transform="matrix(1,0,0,1,1332,1152) translate(68.58641975308642 53.77777777777778)"/><path d="M1401 1095.7h-2V1080h2z" stroke="#008a0e" stroke-width=".05" fill="#008a0e"/><path d="M1400 1079l1-.06v1.1h-2v-1.1z" fill="#008a0e"/><path d="M1400 1078.98l1.03-.07v1.15h-2.06v-1.14zm-.97 1.02h1.94v-1.04l-.97.07-.97-.07z" stroke="#008a0e" stroke-width=".05" fill="#008a0e"/><path d="M1400 1135.8l-4.37-13.45h8.74z" fill="#008a0e"/><path d="M1400 1139.04l-5.42-16.7h10.84zm-3.26-16.5l3.26 10.02 3.26-10.03z" stroke="#008a0e" stroke-width=".05" fill="#008a0e"/><use xlink:href="#e" transform="matrix(1,0,0,1,1381.8827160493827,1095.686065685257) translate(0.004999999999999005 17.77777777777778)"/><path d="M800 2086a6 6 0 0 1 6-6h148a6 6 0 0 1 6 6v108a6 6 0 0 1-6 6H806a6 6 0 0 1-6-6z" stroke="#9e66e4" stroke-width="2" fill="#bb86fc"/><use xlink:href="#C" transform="matrix(1,0,0,1,812,2092) translate(46.39506172839506 53.77777777777778)"/><path d="M881 2045.7h-2v-5.7h2z" stroke="#008a0e" stroke-width=".05" fill="#008a0e"/><path d="M880 2039l1-.06v1.1h-2v-1.1z" fill="#008a0e"/><path d="M880 2038.98l1.02-.07v1.15H879v-1.14zm-.98 1.02H881v-1.04l-.98.07-.98-.07z" stroke="#008a0e" stroke-width=".05" fill="#008a0e"/><path d="M880 2075.8l-1.12-3.45h2.24z" fill="#008a0e"/><path d="M880 2079.04l-2.17-6.7h2.1l.07.22.07-.2h2.1z" stroke="#008a0e" stroke-width=".05" fill="#008a0e"/><g><use xlink:href="#e" transform="matrix(1,0,0,1,861.8827160493827,2045.686065685257) translate(0.004999999999999005 17.77777777777778)"/></g><defs><path fill="#fff" d="M185-189c-5-48-123-54-124 2 14 75 158 14 163 119 3 78-121 87-175 55-17-10-28-26-33-46l33-7c5 56 141 63 141-1 0-78-155-14-162-118-5-82 145-84 179-34 5 7 8 16 11 25" id="D"/><path fill="#fff" d="M59-47c-2 24 18 29 38 22v24C64 9 27 4 27-40v-127H5v-23h24l9-43h21v43h35v23H59v120" id="E"/><path fill="#fff" d="M141-36C126-15 110 5 73 4 37 3 15-17 15-53c-1-64 63-63 125-63 3-35-9-54-41-54-24 1-41 7-42 31l-33-3c5-37 33-52 76-52 45 0 72 20 72 64v82c-1 20 7 32 28 27v20c-31 9-61-2-59-35zM48-53c0 20 12 33 32 33 41-3 63-29 60-74-43 2-92-5-92 41" id="F"/><g id="a"><use transform="matrix(0.06172839506172839,0,0,0.06172839506172839,0,0)" xlink:href="#D"/><use transform="matrix(0.06172839506172839,0,0,0.06172839506172839,14.814814814814813,0)" xlink:href="#E"/><use transform="matrix(0.06172839506172839,0,0,0.06172839506172839,20.98765432098765,0)" xlink:href="#F"/><use transform="matrix(0.06172839506172839,0,0,0.06172839506172839,33.33333333333333,0)" xlink:href="#E"/></g><path fill="#fff" d="M232-93c-1 65-40 97-104 97C67 4 28-28 28-90v-158h33c8 89-33 224 67 224 102 0 64-133 71-224h33v155" id="G"/><path fill="#fff" d="M135-143c-3-34-86-38-87 0 15 53 115 12 119 90S17 21 10-45l28-5c4 36 97 45 98 0-10-56-113-15-118-90-4-57 82-63 122-42 12 7 21 19 24 35" id="H"/><path fill="#fff" d="M100-194c63 0 86 42 84 106H49c0 40 14 67 53 68 26 1 43-12 49-29l28 8c-11 28-37 45-77 45C44 4 14-33 15-96c1-61 26-98 85-98zm52 81c6-60-76-77-97-28-3 7-6 17-6 28h103" id="I"/><path fill="#fff" d="M114-163C36-179 61-72 57 0H25l-1-190h30c1 12-1 29 2 39 6-27 23-49 58-41v29" id="J"/><g id="b"><use transform="matrix(0.06172839506172839,0,0,0.06172839506172839,0,0)" xlink:href="#G"/><use transform="matrix(0.06172839506172839,0,0,0.06172839506172839,15.987654320987653,0)" xlink:href="#H"/><use transform="matrix(0.06172839506172839,0,0,0.06172839506172839,27.098765432098766,0)" xlink:href="#I"/><use transform="matrix(0.06172839506172839,0,0,0.06172839506172839,39.44444444444444,0)" xlink:href="#J"/></g><path fill="#fff" d="M205 0l-28-72H64L36 0H1l101-248h38L239 0h-34zm-38-99l-47-123c-12 45-31 82-46 123h93" id="K"/><path fill="#fff" d="M85-194c31 0 48 13 60 33l-1-100h32l1 261h-30c-2-10 0-23-3-31C134-8 116 4 85 4 32 4 16-35 15-94c0-66 23-100 70-100zm9 24c-40 0-46 34-46 75 0 40 6 74 45 74 42 0 51-32 51-76 0-42-9-74-50-73" id="L"/><path fill="#fff" d="M210-169c-67 3-38 105-44 169h-31v-121c0-29-5-50-35-48C34-165 62-65 56 0H25l-1-190h30c1 10-1 24 2 32 10-44 99-50 107 0 11-21 27-35 58-36 85-2 47 119 55 194h-31v-121c0-29-5-49-35-48" id="M"/><path fill="#fff" d="M24-231v-30h32v30H24zM24 0v-190h32V0H24" id="N"/><path fill="#fff" d="M117-194c89-4 53 116 60 194h-32v-121c0-31-8-49-39-48C34-167 62-67 57 0H25l-1-190h30c1 10-1 24 2 32 11-22 29-35 61-36" id="O"/><g id="c"><use transform="matrix(0.06172839506172839,0,0,0.06172839506172839,0,0)" xlink:href="#K"/><use transform="matrix(0.06172839506172839,0,0,0.06172839506172839,14.814814814814813,0)" xlink:href="#L"/><use transform="matrix(0.06172839506172839,0,0,0.06172839506172839,27.160493827160494,0)" xlink:href="#M"/><use transform="matrix(0.06172839506172839,0,0,0.06172839506172839,45.61728395061728,0)" xlink:href="#N"/><use transform="matrix(0.06172839506172839,0,0,0.06172839506172839,50.49382716049382,0)" xlink:href="#O"/></g><path fill="#fff" d="M30 0v-248h33v221h125V0H30" id="P"/><path fill="#fff" d="M100-194c62-1 85 37 85 99 1 63-27 99-86 99S16-35 15-95c0-66 28-99 85-99zM99-20c44 1 53-31 53-75 0-43-8-75-51-75s-53 32-53 75 10 74 51 75" id="Q"/><path fill="#fff" d="M177-190C167-65 218 103 67 71c-23-6-38-20-44-43l32-5c15 47 100 32 89-28v-30C133-14 115 1 83 1 29 1 15-40 15-95c0-56 16-97 71-98 29-1 48 16 59 35 1-10 0-23 2-32h30zM94-22c36 0 50-32 50-73 0-42-14-75-50-75-39 0-46 34-46 75s6 73 46 73" id="R"/><g id="d"><use transform="matrix(0.06172839506172839,0,0,0.06172839506172839,0,0)" xlink:href="#P"/><use transform="matrix(0.06172839506172839,0,0,0.06172839506172839,12.345679012345679,0)" xlink:href="#Q"/><use transform="matrix(0.06172839506172839,0,0,0.06172839506172839,24.691358024691358,0)" xlink:href="#R"/><use transform="matrix(0.06172839506172839,0,0,0.06172839506172839,37.03703703703704,0)" xlink:href="#N"/><use transform="matrix(0.06172839506172839,0,0,0.06172839506172839,41.91358024691358,0)" xlink:href="#O"/></g><path fill="#fff" d="M137-103V0h-34v-103L8-248h37l75 118 75-118h37" id="S"/><g id="e"><use transform="matrix(0.06172839506172839,0,0,0.06172839506172839,0,0)" xlink:href="#S"/><use transform="matrix(0.06172839506172839,0,0,0.06172839506172839,12.777777777777777,0)" xlink:href="#I"/><use transform="matrix(0.06172839506172839,0,0,0.06172839506172839,25.123456790123456,0)" xlink:href="#H"/></g><path fill="#fff" d="M84 4C-5 8 30-112 23-190h32v120c0 31 7 50 39 49 72-2 45-101 50-169h31l1 190h-30c-1-10 1-25-2-33-11 22-28 36-60 37" id="T"/><path fill="#fff" d="M96-169c-40 0-48 33-48 73s9 75 48 75c24 0 41-14 43-38l32 2c-6 37-31 61-74 61-59 0-76-41-82-99-10-93 101-131 147-64 4 7 5 14 7 22l-32 3c-4-21-16-35-41-35" id="U"/><g id="f"><use transform="matrix(0.06172839506172839,0,0,0.06172839506172839,0,0)" xlink:href="#D"/><use transform="matrix(0.06172839506172839,0,0,0.06172839506172839,14.814814814814813,0)" xlink:href="#T"/><use transform="matrix(0.06172839506172839,0,0,0.06172839506172839,27.160493827160494,0)" xlink:href="#H"/><use transform="matrix(0.06172839506172839,0,0,0.06172839506172839,38.27160493827161,0)" xlink:href="#U"/><use transform="matrix(0.06172839506172839,0,0,0.06172839506172839,49.38271604938272,0)" xlink:href="#U"/><use transform="matrix(0.06172839506172839,0,0,0.06172839506172839,60.49382716049384,0)" xlink:href="#I"/><use transform="matrix(0.06172839506172839,0,0,0.06172839506172839,72.83950617283952,0)" xlink:href="#H"/></g><path fill="#fff" d="M63-220v92h138v28H63V0H30v-248h175v28H63" id="V"/><path fill="#fff" d="M24 0v-261h32V0H24" id="W"/><g id="g"><use transform="matrix(0.06172839506172839,0,0,0.06172839506172839,0,0)" xlink:href="#V"/><use transform="matrix(0.06172839506172839,0,0,0.06172839506172839,13.518518518518517,0)" xlink:href="#F"/><use transform="matrix(0.06172839506172839,0,0,0.06172839506172839,25.864197530864196,0)" xlink:href="#N"/><use transform="matrix(0.06172839506172839,0,0,0.06172839506172839,30.74074074074074,0)" xlink:href="#W"/></g><path fill="#fff" d="M190 0L58-211 59 0H30v-248h39L202-35l-2-213h31V0h-41" id="X"/><g id="h"><use transform="matrix(0.06172839506172839,0,0,0.06172839506172839,0,0)" xlink:href="#X"/><use transform="matrix(0.06172839506172839,0,0,0.06172839506172839,15.987654320987653,0)" xlink:href="#Q"/></g><path fill="#fff" d="M140-251c81 0 123 46 123 126C263-46 219 4 140 4 59 4 17-45 17-125s42-126 123-126zm0 227c63 0 89-41 89-101s-29-99-89-99c-61 0-89 39-89 99S79-25 140-24" id="Y"/><path fill="#fff" d="M115-194c55 1 70 41 70 98S169 2 115 4C84 4 66-9 55-30l1 105H24l-1-265h31l2 30c10-21 28-34 59-34zm-8 174c40 0 45-34 45-75s-6-73-45-74c-42 0-51 32-51 76 0 43 10 73 51 73" id="Z"/><g id="i"><use transform="matrix(0.06172839506172839,0,0,0.06172839506172839,0,0)" xlink:href="#Y"/><use transform="matrix(0.06172839506172839,0,0,0.06172839506172839,17.28395061728395,0)" xlink:href="#Z"/></g><path fill="#fff" d="M30-248c118-7 216 8 213 122C240-48 200 0 122 0H30v-248zM63-27c89 8 146-16 146-99s-60-101-146-95v194" id="aa"/><path fill="#fff" d="M179-190L93 31C79 59 56 82 12 73V49c39 6 53-20 64-50L1-190h34L92-34l54-156h33" id="ab"/><g id="j"><use transform="matrix(0.06172839506172839,0,0,0.06172839506172839,0,0)" xlink:href="#aa"/><use transform="matrix(0.06172839506172839,0,0,0.06172839506172839,15.987654320987653,0)" xlink:href="#N"/><use transform="matrix(0.06172839506172839,0,0,0.06172839506172839,20.864197530864196,0)" xlink:href="#H"/><use transform="matrix(0.06172839506172839,0,0,0.06172839506172839,31.975308641975307,0)" xlink:href="#Z"/><use transform="matrix(0.06172839506172839,0,0,0.06172839506172839,44.32098765432099,0)" xlink:href="#W"/><use transform="matrix(0.06172839506172839,0,0,0.06172839506172839,49.19753086419753,0)" xlink:href="#F"/><use transform="matrix(0.06172839506172839,0,0,0.06172839506172839,61.54320987654321,0)" xlink:href="#ab"/></g><path fill="#fff" d="M106-169C34-169 62-67 57 0H25v-261h32l-1 103c12-21 28-36 61-36 89 0 53 116 60 194h-32v-121c2-32-8-49-39-48" id="ac"/><g id="k"><use transform="matrix(0.06172839506172839,0,0,0.06172839506172839,0,0)" xlink:href="#D"/><use transform="matrix(0.06172839506172839,0,0,0.06172839506172839,14.814814814814813,0)" xlink:href="#I"/><use transform="matrix(0.06172839506172839,0,0,0.06172839506172839,27.160493827160494,0)" xlink:href="#F"/><use transform="matrix(0.06172839506172839,0,0,0.06172839506172839,39.50617283950617,0)" xlink:href="#J"/><use transform="matrix(0.06172839506172839,0,0,0.06172839506172839,46.85185185185185,0)" xlink:href="#U"/><use transform="matrix(0.06172839506172839,0,0,0.06172839506172839,57.96296296296296,0)" xlink:href="#ac"/></g><g id="l"><use transform="matrix(0.06172839506172839,0,0,0.06172839506172839,0,0)" xlink:href="#W"/><use transform="matrix(0.06172839506172839,0,0,0.06172839506172839,4.876543209876543,0)" xlink:href="#Q"/><use transform="matrix(0.06172839506172839,0,0,0.06172839506172839,17.22222222222222,0)" xlink:href="#R"/><use transform="matrix(0.06172839506172839,0,0,0.06172839506172839,29.5679012345679,0)" xlink:href="#Q"/><use transform="matrix(0.06172839506172839,0,0,0.06172839506172839,41.913580246913575,0)" xlink:href="#T"/><use transform="matrix(0.06172839506172839,0,0,0.06172839506172839,54.25925925925925,0)" xlink:href="#E"/></g><g id="m"><use transform="matrix(0.06172839506172839,0,0,0.06172839506172839,0,0)" xlink:href="#N"/><use transform="matrix(0.06172839506172839,0,0,0.06172839506172839,4.876543209876543,0)" xlink:href="#L"/></g><g id="n"><use transform="matrix(0.06172839506172839,0,0,0.06172839506172839,0,0)" xlink:href="#F"/><use transform="matrix(0.06172839506172839,0,0,0.06172839506172839,12.345679012345679,0)" xlink:href="#O"/><use transform="matrix(0.06172839506172839,0,0,0.06172839506172839,24.691358024691358,0)" xlink:href="#L"/></g><g id="o"><use transform="matrix(0.06172839506172839,0,0,0.06172839506172839,0,0)" xlink:href="#O"/><use transform="matrix(0.06172839506172839,0,0,0.06172839506172839,12.345679012345679,0)" xlink:href="#F"/><use transform="matrix(0.06172839506172839,0,0,0.06172839506172839,24.691358024691358,0)" xlink:href="#M"/><use transform="matrix(0.06172839506172839,0,0,0.06172839506172839,43.148148148148145,0)" xlink:href="#I"/></g><path fill="#fff" d="M115-194c53 0 69 39 70 98 0 66-23 100-70 100C84 3 66-7 56-30L54 0H23l1-261h32v101c10-23 28-34 59-34zm-8 174c40 0 45-34 45-75 0-40-5-75-45-74-42 0-51 32-51 76 0 43 10 73 51 73" id="ad"/><path fill="#fff" d="M143 0L79-87 56-68V0H24v-261h32v163l83-92h37l-77 82L181 0h-38" id="ae"/><g id="p"><use transform="matrix(0.06172839506172839,0,0,0.06172839506172839,0,0)" xlink:href="#ad"/><use transform="matrix(0.06172839506172839,0,0,0.06172839506172839,12.345679012345679,0)" xlink:href="#Q"/><use transform="matrix(0.06172839506172839,0,0,0.06172839506172839,24.691358024691358,0)" xlink:href="#Q"/><use transform="matrix(0.06172839506172839,0,0,0.06172839506172839,37.03703703703704,0)" xlink:href="#ae"/></g><path fill="#fff" d="M30-248c87 1 191-15 191 75 0 78-77 80-158 76V0H30v-248zm33 125c57 0 124 11 124-50 0-59-68-47-124-48v98" id="af"/><g id="q"><use transform="matrix(0.06172839506172839,0,0,0.06172839506172839,0,0)" xlink:href="#af"/><use transform="matrix(0.06172839506172839,0,0,0.06172839506172839,14.814814814814813,0)" xlink:href="#F"/><use transform="matrix(0.06172839506172839,0,0,0.06172839506172839,27.160493827160494,0)" xlink:href="#T"/><use transform="matrix(0.06172839506172839,0,0,0.06172839506172839,39.50617283950617,0)" xlink:href="#H"/><use transform="matrix(0.06172839506172839,0,0,0.06172839506172839,50.61728395061728,0)" xlink:href="#I"/></g><g id="r"><use transform="matrix(0.06172839506172839,0,0,0.06172839506172839,0,0)" xlink:href="#O"/><use transform="matrix(0.06172839506172839,0,0,0.06172839506172839,12.345679012345679,0)" xlink:href="#F"/><use transform="matrix(0.06172839506172839,0,0,0.06172839506172839,24.691358024691358,0)" xlink:href="#M"/><use transform="matrix(0.06172839506172839,0,0,0.06172839506172839,43.148148148148145,0)" xlink:href="#I"/></g><g id="s"><use transform="matrix(0.06172839506172839,0,0,0.06172839506172839,0,0)" xlink:href="#N"/><use transform="matrix(0.06172839506172839,0,0,0.06172839506172839,4.876543209876543,0)" xlink:href="#L"/></g><g id="t"><use transform="matrix(0.06172839506172839,0,0,0.06172839506172839,0,0)" xlink:href="#N"/><use transform="matrix(0.06172839506172839,0,0,0.06172839506172839,4.876543209876543,0)" xlink:href="#L"/></g><g id="u"><use transform="matrix(0.06172839506172839,0,0,0.06172839506172839,0,0)" xlink:href="#O"/><use transform="matrix(0.06172839506172839,0,0,0.06172839506172839,12.345679012345679,0)" xlink:href="#F"/><use transform="matrix(0.06172839506172839,0,0,0.06172839506172839,24.691358024691358,0)" xlink:href="#M"/><use transform="matrix(0.06172839506172839,0,0,0.06172839506172839,43.148148148148145,0)" xlink:href="#I"/></g><path fill="#fff" d="M206 0h-36l-40-164L89 0H53L-1-190h32L70-26l43-164h34l41 164 42-164h31" id="ag"/><g id="v"><use transform="matrix(0.06172839506172839,0,0,0.06172839506172839,0,0)" xlink:href="#ad"/><use transform="matrix(0.06172839506172839,0,0,0.06172839506172839,12.345679012345679,0)" xlink:href="#Q"/><use transform="matrix(0.06172839506172839,0,0,0.06172839506172839,24.691358024691358,0)" xlink:href="#J"/><use transform="matrix(0.06172839506172839,0,0,0.06172839506172839,32.03703703703704,0)" xlink:href="#J"/><use transform="matrix(0.06172839506172839,0,0,0.06172839506172839,39.382716049382715,0)" xlink:href="#Q"/><use transform="matrix(0.06172839506172839,0,0,0.06172839506172839,51.72839506172839,0)" xlink:href="#ag"/></g><g id="w"><use transform="matrix(0.06172839506172839,0,0,0.06172839506172839,0,0)" xlink:href="#N"/><use transform="matrix(0.06172839506172839,0,0,0.06172839506172839,4.876543209876543,0)" xlink:href="#O"/><use transform="matrix(0.06172839506172839,0,0,0.06172839506172839,17.22222222222222,0)" xlink:href="#Z"/><use transform="matrix(0.06172839506172839,0,0,0.06172839506172839,29.5679012345679,0)" xlink:href="#T"/><use transform="matrix(0.06172839506172839,0,0,0.06172839506172839,41.913580246913575,0)" xlink:href="#E"/></g><g id="x"><use transform="matrix(0.06172839506172839,0,0,0.06172839506172839,0,0)" xlink:href="#Y"/><use transform="matrix(0.06172839506172839,0,0,0.06172839506172839,17.28395061728395,0)" xlink:href="#af"/></g><g id="y"><use transform="matrix(0.06172839506172839,0,0,0.06172839506172839,0,0)" xlink:href="#ad"/><use transform="matrix(0.06172839506172839,0,0,0.06172839506172839,12.345679012345679,0)" xlink:href="#F"/><use transform="matrix(0.06172839506172839,0,0,0.06172839506172839,24.691358024691358,0)" xlink:href="#U"/><use transform="matrix(0.06172839506172839,0,0,0.06172839506172839,35.80246913580247,0)" xlink:href="#ae"/></g><g id="z"><use transform="matrix(0.06172839506172839,0,0,0.06172839506172839,0,0)" xlink:href="#M"/><use transform="matrix(0.06172839506172839,0,0,0.06172839506172839,18.456790123456788,0)" xlink:href="#ab"/></g><g id="A"><use transform="matrix(0.06172839506172839,0,0,0.06172839506172839,0,0)" xlink:href="#W"/><use transform="matrix(0.06172839506172839,0,0,0.06172839506172839,4.876543209876543,0)" xlink:href="#N"/><use transform="matrix(0.06172839506172839,0,0,0.06172839506172839,9.753086419753085,0)" xlink:href="#ad"/><use transform="matrix(0.06172839506172839,0,0,0.06172839506172839,22.098765432098766,0)" xlink:href="#J"/><use transform="matrix(0.06172839506172839,0,0,0.06172839506172839,29.444444444444443,0)" xlink:href="#F"/></g><g id="B"><use transform="matrix(0.06172839506172839,0,0,0.06172839506172839,0,0)" xlink:href="#ab"/><use transform="matrix(0.06172839506172839,0,0,0.06172839506172839,11.11111111111111,0)" xlink:href="#Q"/><use transform="matrix(0.06172839506172839,0,0,0.06172839506172839,23.45679012345679,0)" xlink:href="#T"/><use transform="matrix(0.06172839506172839,0,0,0.06172839506172839,35.80246913580247,0)" xlink:href="#J"/></g><g id="C"><use transform="matrix(0.06172839506172839,0,0,0.06172839506172839,0,0)" xlink:href="#L"/><use transform="matrix(0.06172839506172839,0,0,0.06172839506172839,12.345679012345679,0)" xlink:href="#F"/><use transform="matrix(0.06172839506172839,0,0,0.06172839506172839,24.691358024691358,0)" xlink:href="#E"/><use transform="matrix(0.06172839506172839,0,0,0.06172839506172839,30.864197530864196,0)" xlink:href="#I"/></g></defs></g></svg>